# Blender v2.83.4 OBJ File: 'gems.blend'
# www.blender.org
mtllib gem.mtl
o Gem.005
v 0.923880 0.000000 -0.382684
v 0.382683 0.000000 -0.923880
v 0.612293 0.175000 -0.612293
v 0.000000 0.175000 -0.865914
v 0.229610 0.350000 -0.554328
v 0.554328 0.350000 -0.229610
v 0.923880 0.000000 0.382683
v 0.865914 0.175000 0.000000
v 0.554328 0.350000 0.229610
v 0.382683 0.000000 0.923880
v 0.612293 0.175000 0.612293
v 0.229610 0.350000 0.554328
v -0.382683 0.000000 0.923880
v 0.000000 0.175000 0.865914
v -0.229610 0.350000 0.554328
v -0.923880 0.000000 0.382683
v -0.612293 0.175000 0.612293
v -0.554328 0.350000 0.229610
v -0.923880 0.000000 -0.382684
v -0.865914 0.175000 0.000000
v -0.554328 0.350000 -0.229610
v -0.382683 0.000000 -0.923880
v -0.612293 0.175000 -0.612293
v -0.229610 0.350000 -0.554328
v 0.000000 0.350000 0.000000
v 0.612293 -0.175000 -0.612293
v 0.229610 -0.350000 -0.554328
v 0.000000 -0.175000 -0.865914
v 0.554328 -0.350000 -0.229610
v 0.865914 -0.175000 0.000000
v 0.554328 -0.350000 0.229610
v 0.612293 -0.175000 0.612293
v 0.229610 -0.350000 0.554328
v 0.000000 -0.175000 0.865914
v -0.229610 -0.350000 0.554328
v -0.612293 -0.175000 0.612293
v -0.554328 -0.350000 0.229610
v -0.865914 -0.175000 0.000000
v -0.554328 -0.350000 -0.229610
v -0.612293 -0.175000 -0.612293
v -0.229610 -0.350000 -0.554328
v 0.000000 -0.350000 0.000000
vn 0.6712 0.3144 -0.6712
vn 0.2520 0.7526 -0.6084
vn 0.3463 0.8719 -0.3463
vn 0.9493 0.3144 0.0000
vn 0.6084 0.7526 -0.2520
vn 0.4897 0.8719 0.0000
vn 0.6712 0.3144 0.6712
vn 0.6084 0.7526 0.2520
vn 0.3463 0.8719 0.3463
vn 0.0000 0.3144 0.9493
vn 0.2520 0.7526 0.6084
vn 0.0000 0.8719 0.4897
vn -0.6712 0.3144 0.6712
vn -0.2520 0.7526 0.6084
vn -0.3463 0.8719 0.3463
vn -0.9493 0.3144 0.0000
vn -0.6084 0.7526 0.2520
vn -0.4897 0.8719 0.0000
vn -0.6712 0.3144 -0.6712
vn -0.6084 0.7526 -0.2520
vn -0.3463 0.8719 -0.3463
vn 0.0000 0.3144 -0.9493
vn -0.2520 0.7526 -0.6084
vn 0.0000 0.8719 -0.4897
vn -0.0000 -1.0000 -0.0000
vn 0.6712 -0.3144 -0.6712
vn 0.2520 -0.7526 -0.6084
vn 0.3463 -0.8719 -0.3463
vn 0.9493 -0.3144 -0.0000
vn 0.6084 -0.7526 -0.2520
vn 0.4897 -0.8719 -0.0000
vn 0.6712 -0.3144 0.6712
vn 0.6084 -0.7526 0.2520
vn 0.3463 -0.8719 0.3463
vn 0.0000 -0.3144 0.9493
vn 0.2520 -0.7526 0.6084
vn 0.0000 -0.8719 0.4897
vn -0.6712 -0.3144 0.6712
vn -0.2520 -0.7526 0.6084
vn -0.3463 -0.8719 0.3463
vn -0.9493 -0.3144 -0.0000
vn -0.6084 -0.7526 0.2520
vn -0.4897 -0.8719 -0.0000
vn -0.6712 -0.3144 -0.6712
vn -0.6084 -0.7526 -0.2520
vn -0.3463 -0.8719 -0.3463
vn 0.0000 -0.3144 -0.9493
vn -0.2520 -0.7526 -0.6084
vn 0.0000 -0.8719 -0.4897
vn 0.0000 1.0000 0.0000
g Gem.005_Gem.005_material69
usemtl material69
s 1
f 1//1 2//1 3//1
f 3//2 2//2 4//2 5//2
f 3//3 5//3 6//3
f 7//4 1//4 8//4
f 8//5 1//5 3//5 6//5
f 8//6 6//6 9//6
f 10//7 7//7 11//7
f 11//8 7//8 8//8 9//8
f 11//9 9//9 12//9
f 13//10 10//10 14//10
f 14//11 10//11 11//11 12//11
f 14//12 12//12 15//12
f 16//13 13//13 17//13
f 17//14 13//14 14//14 15//14
f 17//15 15//15 18//15
f 19//16 16//16 20//16
f 20//17 16//17 17//17 18//17
f 20//18 18//18 21//18
f 22//19 19//19 23//19
f 23//20 19//20 20//20 21//20
f 23//21 21//21 24//21
f 2//22 22//22 4//22
f 4//23 22//23 23//23 24//23
f 4//24 24//24 5//24
f 5//25 25//25 24//25
f 25//25 5//25 6//25
f 25//25 6//25 9//25
f 25//25 9//25 12//25
f 25//25 12//25 15//25
f 25//25 15//25 18//25
f 25//25 18//25 21//25
f 25//25 21//25 24//25
f 1//26 26//26 2//26
f 26//27 27//27 28//27 2//27
f 26//28 29//28 27//28
f 7//29 30//29 1//29
f 30//30 29//30 26//30 1//30
f 30//31 31//31 29//31
f 10//32 32//32 7//32
f 32//33 31//33 30//33 7//33
f 32//34 33//34 31//34
f 13//35 34//35 10//35
f 34//36 33//36 32//36 10//36
f 34//37 35//37 33//37
f 16//38 36//38 13//38
f 36//39 35//39 34//39 13//39
f 36//40 37//40 35//40
f 19//41 38//41 16//41
f 38//42 37//42 36//42 16//42
f 38//43 39//43 37//43
f 22//44 40//44 19//44
f 40//45 39//45 38//45 19//45
f 40//46 41//46 39//46
f 2//47 28//47 22//47
f 28//48 41//48 40//48 22//48
f 28//49 27//49 41//49
f 27//50 41//50 42//50
f 42//50 29//50 27//50
f 42//50 31//50 29//50
f 42//50 33//50 31//50
f 42//50 35//50 33//50
f 42//50 37//50 35//50
f 42//50 39//50 37//50
f 42//50 41//50 39//50
