# Blender v2.81 (sub 16) OBJ File: 'gems.blend'
# www.blender.org
mtllib gems.mtl
o Gem
v -1.000000 -0.800000 -2.000000
v -1.000000 0.350000 -2.000000
v -1.000000 -0.400000 -2.541196
v -0.617317 0.000000 -2.923880
v -1.000000 0.175000 -2.865914
v -0.770390 0.350000 -2.554328
v -0.617317 -0.400000 -2.382684
v -0.076120 0.000000 -2.382684
v -0.387707 0.175000 -2.612293
v -0.445672 0.350000 -2.229610
v -0.458804 -0.400000 -2.000000
v -0.076120 0.000000 -1.617317
v -0.134086 0.175000 -2.000000
v -0.445672 0.350000 -1.770390
v -0.617317 -0.400000 -1.617317
v -0.617317 0.000000 -1.076120
v -0.387707 0.175000 -1.387707
v -0.770390 0.350000 -1.445672
v -1.000000 -0.400000 -1.458804
v -1.382683 0.000000 -1.076120
v -1.000000 0.175000 -1.134086
v -1.229610 0.350000 -1.445672
v -1.382683 -0.400000 -1.617317
v -1.923880 0.000000 -1.617317
v -1.612293 0.175000 -1.387707
v -1.554328 0.350000 -1.770390
v -1.541196 -0.400000 -2.000000
v -1.923880 0.000000 -2.382684
v -1.865914 0.175000 -2.000000
v -1.554328 0.350000 -2.229610
v -1.382683 -0.400000 -2.382684
v -1.382683 0.000000 -2.923880
v -1.612293 0.175000 -2.612293
v -1.229610 0.350000 -2.554328
vn 0.2391 -0.7809 -0.5771
vn 0.5109 -0.6913 -0.5109
vn 0.6712 0.3144 -0.6712
vn 0.2520 0.7526 -0.6084
vn 0.3463 0.8719 -0.3463
vn 0.5771 -0.7809 -0.2391
vn 0.7226 -0.6913 0.0000
vn 0.9493 0.3144 0.0000
vn 0.6084 0.7526 -0.2520
vn 0.4897 0.8719 0.0000
vn 0.5771 -0.7809 0.2391
vn 0.5109 -0.6913 0.5109
vn 0.6712 0.3144 0.6712
vn 0.6084 0.7526 0.2520
vn 0.3463 0.8719 0.3463
vn 0.2391 -0.7809 0.5771
vn 0.0000 -0.6913 0.7226
vn 0.0000 0.3144 0.9493
vn 0.2520 0.7526 0.6084
vn 0.0000 0.8719 0.4897
vn -0.2391 -0.7809 0.5771
vn -0.5109 -0.6913 0.5109
vn -0.6712 0.3144 0.6712
vn -0.2520 0.7526 0.6084
vn -0.3463 0.8719 0.3463
vn -0.5771 -0.7809 0.2391
vn -0.7226 -0.6913 0.0000
vn -0.9493 0.3144 0.0000
vn -0.6084 0.7526 0.2520
vn -0.4897 0.8719 0.0000
vn -0.5771 -0.7809 -0.2391
vn -0.5109 -0.6913 -0.5109
vn -0.6712 0.3144 -0.6712
vn -0.6084 0.7526 -0.2520
vn -0.3463 0.8719 -0.3463
vn -0.2391 -0.7809 -0.5771
vn 0.0000 -0.6913 -0.7226
vn 0.0000 0.3144 -0.9493
vn -0.2520 0.7526 -0.6084
vn 0.0000 0.8719 -0.4897
vn 0.0000 -1.0000 0.0000
usemtl None
s off
f 7//1 1//1 3//1 4//1
f 7//2 4//2 8//2
f 8//3 4//3 9//3
f 9//4 4//4 5//4 6//4
f 9//5 6//5 10//5
f 11//6 1//6 7//6 8//6
f 11//7 8//7 12//7
f 12//8 8//8 13//8
f 13//9 8//9 9//9 10//9
f 13//10 10//10 14//10
f 15//11 1//11 11//11 12//11
f 15//12 12//12 16//12
f 16//13 12//13 17//13
f 17//14 12//14 13//14 14//14
f 17//15 14//15 18//15
f 19//16 1//16 15//16 16//16
f 19//17 16//17 20//17
f 20//18 16//18 21//18
f 21//19 16//19 17//19 18//19
f 21//20 18//20 22//20
f 23//21 1//21 19//21 20//21
f 23//22 20//22 24//22
f 24//23 20//23 25//23
f 25//24 20//24 21//24 22//24
f 25//25 22//25 26//25
f 27//26 1//26 23//26 24//26
f 27//27 24//27 28//27
f 28//28 24//28 29//28
f 29//29 24//29 25//29 26//29
f 29//30 26//30 30//30
f 31//31 1//31 27//31 28//31
f 31//32 28//32 32//32
f 32//33 28//33 33//33
f 33//34 28//34 29//34 30//34
f 33//35 30//35 34//35
f 3//36 1//36 31//36 32//36
f 3//37 32//37 4//37
f 4//38 32//38 5//38
f 5//39 32//39 33//39 34//39
f 5//40 34//40 6//40
f 6//41 2//41 34//41
f 2//41 6//41 10//41
f 2//41 10//41 14//41
f 2//41 14//41 18//41
f 2//41 18//41 22//41
f 2//41 22//41 26//41
f 2//41 26//41 30//41
f 2//41 30//41 34//41
o Gem.001
v 1.000000 0.350000 -2.000000
v 1.000000 0.175000 -2.865914
v 1.229610 0.350000 -2.554328
v 1.612293 0.175000 -2.612293
v 1.554328 0.350000 -2.229610
v 1.865914 0.175000 -2.000000
v 1.554328 0.350000 -1.770390
v 1.612293 0.175000 -1.387707
v 1.229610 0.350000 -1.445672
v 1.000000 0.175000 -1.134086
v 0.770390 0.350000 -1.445672
v 0.387707 0.175000 -1.387707
v 0.445672 0.350000 -1.770390
v 0.134086 0.175000 -2.000000
v 0.445672 0.350000 -2.229610
v 0.387707 0.175000 -2.612293
v 0.770390 0.350000 -2.554328
v 1.000000 -0.350000 -2.000000
v 1.382683 0.000000 -2.923880
v 1.000000 -0.175000 -2.865914
v 1.229610 -0.350000 -2.554328
v 1.923880 0.000000 -2.382684
v 1.612293 -0.175000 -2.612293
v 1.554328 -0.350000 -2.229610
v 1.923880 0.000000 -1.617317
v 1.865914 -0.175000 -2.000000
v 1.554328 -0.350000 -1.770390
v 1.382683 0.000000 -1.076120
v 1.612293 -0.175000 -1.387707
v 1.229610 -0.350000 -1.445672
v 0.617317 0.000000 -1.076120
v 1.000000 -0.175000 -1.134086
v 0.770390 -0.350000 -1.445672
v 0.076120 0.000000 -1.617317
v 0.387707 -0.175000 -1.387707
v 0.445672 -0.350000 -1.770390
v 0.076120 0.000000 -2.382684
v 0.134086 -0.175000 -2.000000
v 0.445672 -0.350000 -2.229610
v 0.617317 0.000000 -2.923880
v 0.387707 -0.175000 -2.612293
v 0.770390 -0.350000 -2.554328
vn 0.6712 0.3144 -0.6712
vn 0.2520 0.7526 -0.6084
vn 0.3463 0.8719 -0.3463
vn 0.9493 0.3144 0.0000
vn 0.6084 0.7526 -0.2520
vn 0.4897 0.8719 0.0000
vn 0.6712 0.3144 0.6712
vn 0.6084 0.7526 0.2520
vn 0.3463 0.8719 0.3463
vn 0.0000 0.3144 0.9493
vn 0.2520 0.7526 0.6084
vn 0.0000 0.8719 0.4897
vn -0.6712 0.3144 0.6712
vn -0.2520 0.7526 0.6084
vn -0.3463 0.8719 0.3463
vn -0.9493 0.3144 0.0000
vn -0.6084 0.7526 0.2520
vn -0.4897 0.8719 0.0000
vn -0.6712 0.3144 -0.6712
vn -0.6084 0.7526 -0.2520
vn -0.3463 0.8719 -0.3463
vn 0.0000 0.3144 -0.9493
vn -0.2520 0.7526 -0.6084
vn 0.0000 0.8719 -0.4897
vn 0.0000 -1.0000 0.0000
vn 0.6712 -0.3144 -0.6712
vn 0.2520 -0.7526 -0.6084
vn 0.3463 -0.8719 -0.3463
vn 0.9493 -0.3144 0.0000
vn 0.6084 -0.7526 -0.2520
vn 0.4897 -0.8719 0.0000
vn 0.6712 -0.3144 0.6712
vn 0.6084 -0.7526 0.2520
vn 0.3463 -0.8719 0.3463
vn 0.0000 -0.3144 0.9493
vn 0.2520 -0.7526 0.6084
vn 0.0000 -0.8719 0.4897
vn -0.6712 -0.3144 0.6712
vn -0.2520 -0.7526 0.6084
vn -0.3463 -0.8719 0.3463
vn -0.9493 -0.3144 0.0000
vn -0.6084 -0.7526 0.2520
vn -0.4897 -0.8719 0.0000
vn -0.6712 -0.3144 -0.6712
vn -0.6084 -0.7526 -0.2520
vn -0.3463 -0.8719 -0.3463
vn 0.0000 -0.3144 -0.9493
vn -0.2520 -0.7526 -0.6084
vn 0.0000 -0.8719 -0.4897
vn 0.0000 1.0000 0.0000
usemtl None
s off
f 56//42 53//42 38//42
f 38//43 53//43 36//43 37//43
f 38//44 37//44 39//44
f 59//45 56//45 40//45
f 40//46 56//46 38//46 39//46
f 40//47 39//47 41//47
f 62//48 59//48 42//48
f 42//49 59//49 40//49 41//49
f 42//50 41//50 43//50
f 65//51 62//51 44//51
f 44//52 62//52 42//52 43//52
f 44//53 43//53 45//53
f 68//54 65//54 46//54
f 46//55 65//55 44//55 45//55
f 46//56 45//56 47//56
f 71//57 68//57 48//57
f 48//58 68//58 46//58 47//58
f 48//59 47//59 49//59
f 74//60 71//60 50//60
f 50//61 71//61 48//61 49//61
f 50//62 49//62 51//62
f 53//63 74//63 36//63
f 36//64 74//64 50//64 51//64
f 36//65 51//65 37//65
f 37//66 35//66 51//66
f 35//66 37//66 39//66
f 35//66 39//66 41//66
f 35//66 41//66 43//66
f 35//66 43//66 45//66
f 35//66 45//66 47//66
f 35//66 47//66 49//66
f 35//66 49//66 51//66
f 56//67 57//67 53//67
f 57//68 55//68 54//68 53//68
f 57//69 58//69 55//69
f 59//70 60//70 56//70
f 60//71 58//71 57//71 56//71
f 60//72 61//72 58//72
f 62//73 63//73 59//73
f 63//74 61//74 60//74 59//74
f 63//75 64//75 61//75
f 65//76 66//76 62//76
f 66//77 64//77 63//77 62//77
f 66//78 67//78 64//78
f 68//79 69//79 65//79
f 69//80 67//80 66//80 65//80
f 69//81 70//81 67//81
f 71//82 72//82 68//82
f 72//83 70//83 69//83 68//83
f 72//84 73//84 70//84
f 74//85 75//85 71//85
f 75//86 73//86 72//86 71//86
f 75//87 76//87 73//87
f 53//88 54//88 74//88
f 54//89 76//89 75//89 74//89
f 54//90 55//90 76//90
f 55//91 76//91 52//91
f 52//91 58//91 55//91
f 52//91 61//91 58//91
f 52//91 64//91 61//91
f 52//91 67//91 64//91
f 52//91 70//91 67//91
f 52//91 73//91 70//91
f 52//91 76//91 73//91
o Gem.002
v 1.000000 -0.800000 2.000000
v 1.000000 0.250000 2.000000
v 1.000000 -0.400000 1.594103
v 1.287013 0.000000 1.307090
v 1.000000 0.125000 1.512923
v 1.057402 0.250000 1.861418
v 1.287013 -0.400000 1.712987
v 1.692910 0.000000 1.712987
v 1.344415 0.125000 1.655585
v 1.138582 0.250000 1.942598
v 1.405897 -0.400000 2.000000
v 1.692910 0.000000 2.287013
v 1.487077 0.125000 2.000000
v 1.138582 0.250000 2.057403
v 1.287013 -0.400000 2.287013
v 1.287013 0.000000 2.692910
v 1.344415 0.125000 2.344415
v 1.057402 0.250000 2.138582
v 1.000000 -0.400000 2.405897
v 0.712987 0.000000 2.692910
v 1.000000 0.125000 2.487077
v 0.942598 0.250000 2.138582
v 0.712987 -0.400000 2.287013
v 0.307090 0.000000 2.287013
v 0.655585 0.125000 2.344415
v 0.861418 0.250000 2.057403
v 0.594103 -0.400000 2.000000
v 0.307090 0.000000 1.712987
v 0.512923 0.125000 2.000000
v 0.861418 0.250000 1.942598
v 0.712987 -0.400000 1.712987
v 0.712987 0.000000 1.307090
v 0.655585 0.125000 1.655585
v 0.942598 0.250000 1.861418
vn 0.2792 -0.6839 -0.6740
vn 0.5745 -0.5830 -0.5745
vn 0.3670 0.8547 -0.3670
vn 0.1472 0.9231 -0.3553
vn 0.2387 0.9413 -0.2387
vn 0.6740 -0.6839 -0.2792
vn 0.8125 -0.5830 0.0000
vn 0.5191 0.8547 0.0000
vn 0.3553 0.9231 -0.1472
vn 0.3376 0.9413 0.0000
vn 0.6740 -0.6839 0.2792
vn 0.5745 -0.5830 0.5745
vn 0.3670 0.8547 0.3670
vn 0.3553 0.9231 0.1472
vn 0.2387 0.9413 0.2387
vn 0.2792 -0.6839 0.6740
vn 0.0000 -0.5830 0.8125
vn 0.0000 0.8547 0.5191
vn 0.1472 0.9231 0.3553
vn 0.0000 0.9413 0.3376
vn -0.2792 -0.6839 0.6740
vn -0.5745 -0.5830 0.5745
vn -0.3670 0.8547 0.3670
vn -0.1472 0.9231 0.3553
vn -0.2387 0.9413 0.2387
vn -0.6740 -0.6839 0.2792
vn -0.8125 -0.5830 0.0000
vn -0.5191 0.8547 0.0000
vn -0.3553 0.9231 0.1472
vn -0.3376 0.9413 0.0000
vn -0.6740 -0.6839 -0.2792
vn -0.5745 -0.5830 -0.5745
vn -0.3670 0.8547 -0.3670
vn -0.3553 0.9231 -0.1472
vn -0.2387 0.9413 -0.2387
vn -0.2792 -0.6839 -0.6740
vn 0.0000 -0.5830 -0.8125
vn 0.0000 0.8547 -0.5191
vn -0.1472 0.9231 -0.3553
vn 0.0000 0.9413 -0.3376
vn 0.0000 -1.0000 0.0000
usemtl None
s off
f 83//92 77//92 79//92 80//92
f 83//93 80//93 84//93
f 84//94 80//94 85//94
f 85//95 80//95 81//95 82//95
f 85//96 82//96 86//96
f 87//97 77//97 83//97 84//97
f 87//98 84//98 88//98
f 88//99 84//99 89//99
f 89//100 84//100 85//100 86//100
f 89//101 86//101 90//101
f 91//102 77//102 87//102 88//102
f 91//103 88//103 92//103
f 92//104 88//104 93//104
f 93//105 88//105 89//105 90//105
f 93//106 90//106 94//106
f 95//107 77//107 91//107 92//107
f 95//108 92//108 96//108
f 96//109 92//109 97//109
f 97//110 92//110 93//110 94//110
f 97//111 94//111 98//111
f 99//112 77//112 95//112 96//112
f 99//113 96//113 100//113
f 100//114 96//114 101//114
f 101//115 96//115 97//115 98//115
f 101//116 98//116 102//116
f 103//117 77//117 99//117 100//117
f 103//118 100//118 104//118
f 104//119 100//119 105//119
f 105//120 100//120 101//120 102//120
f 105//121 102//121 106//121
f 107//122 77//122 103//122 104//122
f 107//123 104//123 108//123
f 108//124 104//124 109//124
f 109//125 104//125 105//125 106//125
f 109//126 106//126 110//126
f 79//127 77//127 107//127 108//127
f 79//128 108//128 80//128
f 80//129 108//129 81//129
f 81//130 108//130 109//130 110//130
f 81//131 110//131 82//131
f 82//132 78//132 110//132
f 78//132 82//132 86//132
f 78//132 86//132 90//132
f 78//132 90//132 94//132
f 78//132 94//132 98//132
f 78//132 98//132 102//132
f 78//132 102//132 106//132
f 78//132 106//132 110//132
o Gem.003
v -1.000000 0.250000 2.000000
v -1.000000 0.125000 1.512923
v -0.942598 0.250000 1.861418
v -0.655585 0.125000 1.655585
v -0.861418 0.250000 1.942598
v -0.512923 0.125000 2.000000
v -0.861418 0.250000 2.057403
v -0.655585 0.125000 2.344415
v -0.942598 0.250000 2.138582
v -1.000000 0.125000 2.487077
v -1.057402 0.250000 2.138582
v -1.344415 0.125000 2.344415
v -1.138582 0.250000 2.057403
v -1.487077 0.125000 2.000000
v -1.138582 0.250000 1.942598
v -1.344415 0.125000 1.655585
v -1.057402 0.250000 1.861418
v -1.000000 -0.250000 2.000000
v -0.712987 0.000000 1.307090
v -1.000000 -0.125000 1.512923
v -0.942598 -0.250000 1.861418
v -0.307090 0.000000 1.712987
v -0.655585 -0.125000 1.655585
v -0.861418 -0.250000 1.942598
v -0.307090 0.000000 2.287013
v -0.512923 -0.125000 2.000000
v -0.861418 -0.250000 2.057403
v -0.712987 0.000000 2.692910
v -0.655585 -0.125000 2.344415
v -0.942598 -0.250000 2.138582
v -1.287013 0.000000 2.692910
v -1.000000 -0.125000 2.487077
v -1.057402 -0.250000 2.138582
v -1.692910 0.000000 2.287013
v -1.344415 -0.125000 2.344415
v -1.138582 -0.250000 2.057403
v -1.692910 0.000000 1.712987
v -1.487077 -0.125000 2.000000
v -1.138582 -0.250000 1.942598
v -1.287013 0.000000 1.307090
v -1.344415 -0.125000 1.655585
v -1.057402 -0.250000 1.861418
vn 0.3670 0.8547 -0.3670
vn 0.1472 0.9231 -0.3553
vn 0.2387 0.9413 -0.2387
vn 0.5191 0.8547 0.0000
vn 0.3553 0.9231 -0.1472
vn 0.3376 0.9413 0.0000
vn 0.3670 0.8547 0.3670
vn 0.3553 0.9231 0.1472
vn 0.2387 0.9413 0.2387
vn 0.0000 0.8547 0.5191
vn 0.1472 0.9231 0.3553
vn 0.0000 0.9413 0.3376
vn -0.3670 0.8547 0.3670
vn -0.1472 0.9231 0.3553
vn -0.2387 0.9413 0.2387
vn -0.5191 0.8547 0.0000
vn -0.3553 0.9231 0.1472
vn -0.3376 0.9413 0.0000
vn -0.3670 0.8547 -0.3670
vn -0.3553 0.9231 -0.1472
vn -0.2387 0.9413 -0.2387
vn 0.0000 0.8547 -0.5191
vn -0.1472 0.9231 -0.3553
vn 0.0000 0.9413 -0.3376
vn 0.0000 -1.0000 0.0000
vn 0.3670 -0.8547 -0.3670
vn 0.1472 -0.9231 -0.3553
vn 0.2387 -0.9413 -0.2387
vn 0.5191 -0.8547 0.0000
vn 0.3553 -0.9231 -0.1472
vn 0.3376 -0.9413 0.0000
vn 0.3670 -0.8547 0.3670
vn 0.3553 -0.9231 0.1472
vn 0.2387 -0.9413 0.2387
vn 0.0000 -0.8547 0.5191
vn 0.1472 -0.9231 0.3553
vn 0.0000 -0.9413 0.3376
vn -0.3670 -0.8547 0.3670
vn -0.1472 -0.9231 0.3553
vn -0.2387 -0.9413 0.2387
vn -0.5191 -0.8547 0.0000
vn -0.3553 -0.9231 0.1472
vn -0.3376 -0.9413 0.0000
vn -0.3670 -0.8547 -0.3670
vn -0.3553 -0.9231 -0.1472
vn -0.2387 -0.9413 -0.2387
vn 0.0000 -0.8547 -0.5191
vn -0.1472 -0.9231 -0.3553
vn 0.0000 -0.9413 -0.3376
vn 0.0000 1.0000 0.0000
usemtl None
s off
f 132//133 129//133 114//133
f 114//134 129//134 112//134 113//134
f 114//135 113//135 115//135
f 135//136 132//136 116//136
f 116//137 132//137 114//137 115//137
f 116//138 115//138 117//138
f 138//139 135//139 118//139
f 118//140 135//140 116//140 117//140
f 118//141 117//141 119//141
f 141//142 138//142 120//142
f 120//143 138//143 118//143 119//143
f 120//144 119//144 121//144
f 144//145 141//145 122//145
f 122//146 141//146 120//146 121//146
f 122//147 121//147 123//147
f 147//148 144//148 124//148
f 124//149 144//149 122//149 123//149
f 124//150 123//150 125//150
f 150//151 147//151 126//151
f 126//152 147//152 124//152 125//152
f 126//153 125//153 127//153
f 129//154 150//154 112//154
f 112//155 150//155 126//155 127//155
f 112//156 127//156 113//156
f 113//157 111//157 127//157
f 111//157 113//157 115//157
f 111//157 115//157 117//157
f 111//157 117//157 119//157
f 111//157 119//157 121//157
f 111//157 121//157 123//157
f 111//157 123//157 125//157
f 111//157 125//157 127//157
f 132//158 133//158 129//158
f 133//159 131//159 130//159 129//159
f 133//160 134//160 131//160
f 135//161 136//161 132//161
f 136//162 134//162 133//162 132//162
f 136//163 137//163 134//163
f 138//164 139//164 135//164
f 139//165 137//165 136//165 135//165
f 139//166 140//166 137//166
f 141//167 142//167 138//167
f 142//168 140//168 139//168 138//168
f 142//169 143//169 140//169
f 144//170 145//170 141//170
f 145//171 143//171 142//171 141//171
f 145//172 146//172 143//172
f 147//173 148//173 144//173
f 148//174 146//174 145//174 144//174
f 148//175 149//175 146//175
f 150//176 151//176 147//176
f 151//177 149//177 148//177 147//177
f 151//178 152//178 149//178
f 129//179 130//179 150//179
f 130//180 152//180 151//180 150//180
f 130//181 131//181 152//181
f 131//182 152//182 128//182
f 128//182 134//182 131//182
f 128//182 137//182 134//182
f 128//182 140//182 137//182
f 128//182 143//182 140//182
f 128//182 146//182 143//182
f 128//182 149//182 146//182
f 128//182 152//182 149//182
o Diamond.001
v -1.000000 0.350000 0.000000
v -1.000000 -0.800000 0.000000
v -0.400000 0.350000 0.000000
v 0.000000 0.000000 0.000000
v -0.700000 0.350000 0.519615
v -0.500000 0.000000 0.866025
v -1.300000 0.350000 0.519615
v -1.500000 0.000000 0.866026
v -1.600000 0.350000 0.000000
v -2.000000 0.000000 0.000000
v -1.300000 0.350000 -0.519615
v -1.500000 0.000000 -0.866026
v -0.700000 0.350000 -0.519615
v -0.500000 0.000000 -0.866025
vn 0.5876 -0.7346 -0.3393
vn 0.5876 -0.7346 0.3393
vn 0.0000 -0.7346 0.6786
vn -0.5876 -0.7346 0.3393
vn -0.5876 -0.7346 -0.3393
vn 0.0000 -0.7346 -0.6786
vn 0.6155 0.7035 -0.3554
vn 0.6155 0.7035 0.3554
vn 0.0000 0.7035 0.7107
vn -0.6155 0.7035 0.3554
vn -0.6155 0.7035 -0.3554
vn 0.0000 0.7035 -0.7107
vn 0.0000 1.0000 0.0000
usemtl None
s off
f 156//183 154//183 166//183
f 154//184 156//184 158//184
f 154//185 158//185 160//185
f 154//186 160//186 162//186
f 154//187 162//187 164//187
f 154//188 164//188 166//188
f 155//189 156//189 166//189 165//189
f 156//190 155//190 157//190 158//190
f 158//191 157//191 159//191 160//191
f 160//192 159//192 161//192 162//192
f 162//193 161//193 163//193 164//193
f 164//194 163//194 165//194 166//194
f 153//195 155//195 165//195
f 155//195 153//195 157//195
f 157//195 153//195 159//195
f 159//195 153//195 161//195
f 161//195 153//195 163//195
f 163//195 153//195 165//195
o Diamond.000_Diamond.002
v 1.000000 0.350000 0.000000
v 1.600000 0.350000 0.000000
v 1.300000 0.350000 0.519615
v 0.700000 0.350000 0.519615
v 0.400000 0.350000 0.000000
v 0.700000 0.350000 -0.519615
v 1.300000 0.350000 -0.519615
v 1.000000 -0.350000 0.000000
v 1.600000 -0.350000 0.000000
v 2.000000 0.000000 0.000000
v 1.300000 -0.350000 0.519615
v 1.500000 0.000000 0.866025
v 0.700000 -0.350000 0.519615
v 0.500000 0.000000 0.866026
v 0.400000 -0.350000 0.000000
v 0.000000 0.000000 0.000000
v 0.700000 -0.350000 -0.519615
v 0.500000 0.000000 -0.866026
v 1.300000 -0.350000 -0.519615
v 1.500000 0.000000 -0.866025
vn 0.6155 0.7035 -0.3554
vn 0.6155 0.7035 0.3554
vn 0.0000 0.7035 0.7107
vn -0.6155 0.7035 0.3554
vn -0.6155 0.7035 -0.3554
vn 0.0000 0.7035 -0.7107
vn 0.0000 1.0000 0.0000
vn 0.6155 -0.7035 -0.3554
vn 0.6155 -0.7035 0.3554
vn 0.0000 -0.7035 0.7107
vn -0.6155 -0.7035 0.3554
vn -0.6155 -0.7035 -0.3554
vn 0.0000 -0.7035 -0.7107
vn 0.0000 -1.0000 0.0000
usemtl None
s off
f 168//196 176//196 186//196 173//196
f 176//197 168//197 169//197 178//197
f 178//198 169//198 170//198 180//198
f 180//199 170//199 171//199 182//199
f 182//200 171//200 172//200 184//200
f 184//201 172//201 173//201 186//201
f 167//202 168//202 173//202
f 168//202 167//202 169//202
f 169//202 167//202 170//202
f 170//202 167//202 171//202
f 171//202 167//202 172//202
f 172//202 167//202 173//202
f 175//203 185//203 186//203 176//203
f 176//204 178//204 177//204 175//204
f 178//205 180//205 179//205 177//205
f 180//206 182//206 181//206 179//206
f 182//207 184//207 183//207 181//207
f 184//208 186//208 185//208 183//208
f 174//209 185//209 175//209
f 175//209 177//209 174//209
f 177//209 179//209 174//209
f 179//209 181//209 174//209
f 181//209 183//209 174//209
f 183//209 185//209 174//209
